<svg width="131" height="45" viewBox="0 0 131 45" fill="none" xmlns="http://www.w3.org/2000/svg">
<path d="M13.0493 39.9698H11.6233V39.2716H15.3223V39.9698H13.9459V44.6779H13.0493V39.9698ZM22.2605 44.6779H19.0147V39.2716H22.2605V39.9698H19.9014V41.4719H21.7311V42.213H19.9014V43.9599H22.2605V44.6779ZM30.3731 44.6779L28.3417 39.2716H27.5476C27.134 40.3999 26.7039 41.538 26.2242 42.7986L26.158 42.974C25.9429 43.543 25.7279 44.1121 25.5161 44.6746H26.3466L26.7767 43.4967H29.1159L29.546 44.6746H30.3731V44.6779ZM27.0513 42.7721L27.9513 40.3966L28.8313 42.7721H27.0513ZM52.9676 41.9814L52.6666 41.8259L52.9445 41.634C53.2654 41.4123 53.4739 41.0517 53.4739 40.7109C53.4739 40.0161 52.8816 39.2683 51.5813 39.2683H49.6491V44.6746H51.5913C52.8651 44.6746 53.6856 44.0559 53.6856 43.0997C53.6889 42.7424 53.4639 42.2361 52.9676 41.9814ZM50.5358 39.9698H51.4424C52.4085 39.9698 52.5508 40.4594 52.5508 40.7506C52.5508 41.0417 52.4052 41.5281 51.4424 41.5281H50.5358V39.9698ZM51.492 43.9599H50.5325V42.2361H51.492C52.4714 42.2361 52.6798 42.696 52.6798 43.0832C52.6798 43.4107 52.5243 43.9599 51.492 43.9599ZM59.3169 39.2055C57.7585 39.2055 56.9446 40.5719 56.9446 41.9251C56.9446 43.5927 57.9206 44.7573 59.3169 44.7573C60.6932 44.7573 61.6891 43.5662 61.6891 41.9251C61.6891 40.3734 60.6701 39.2055 59.3169 39.2055ZM59.3169 43.9599C58.4732 43.9599 57.9272 43.1626 57.9272 41.9251C57.9272 40.7373 58.4732 39.9698 59.3169 39.9698C60.1341 39.9698 60.7065 40.7737 60.7065 41.9251C60.7065 43.1229 60.1341 43.9599 59.3169 43.9599ZM66.1061 39.9698H64.6801V39.2716H68.3758V39.9698H67.0027V44.6779H66.1061V39.9698ZM73.1998 39.2716C72.7895 40.3933 72.3528 41.5413 71.9326 42.6563L71.787 43.0368C71.5785 43.5861 71.3734 44.1353 71.1683 44.6779H71.9987L72.4289 43.5H74.768L74.7813 43.5397L75.1948 44.6779H76.0253L73.9938 39.2716H73.1998ZM72.7068 42.7721L73.6067 40.3966L74.4868 42.7721H72.7068ZM80.1445 39.2716L82.2918 42.8946V39.2716H83.2017V44.6779H82.3447L80.0453 40.7638V44.6779H79.1619V39.2716H80.1445ZM88.1249 44.6779H87.2415V39.2716H88.1249V44.6779ZM95.46 43.3081L96.1019 43.725C95.6685 44.4364 95.0266 44.7805 94.1366 44.7805C92.6974 44.7805 91.8404 43.414 91.8404 42.0939C91.8404 40.6811 92.7437 39.2187 94.2524 39.2187C94.9803 39.2187 95.5792 39.5065 95.9894 40.0558L95.3475 40.5885C95.0895 40.2344 94.7156 40.0558 94.2392 40.0558C93.3889 40.0558 92.8363 40.8234 92.8363 42.0112C92.8363 43.2486 93.3756 43.9897 94.2756 43.9897C94.8314 43.993 95.2384 43.7548 95.46 43.3081ZM101.75 39.2716H100.956C100.542 40.3899 100.109 41.538 99.6884 42.6497L99.5892 42.9144C99.3675 43.5033 99.1425 44.0923 98.9241 44.6779H99.7546L100.185 43.5H102.524L102.954 44.6779H103.784L101.75 39.2716ZM100.463 42.7721L100.496 42.6861L101.363 40.3966L102.243 42.7721H100.463ZM107.986 43.9599H110.345V44.6779H107.103V39.2716H107.986V43.9599ZM117.254 43.2817C117.254 44.1221 116.4 44.7573 115.272 44.7573C114.508 44.7573 113.757 44.443 113.34 43.9467L113.985 43.4107C114.309 43.8077 114.832 44.0625 115.335 44.0625C115.858 44.0625 116.281 43.7184 116.281 43.2949C116.281 42.931 115.973 42.6166 115.282 42.2692L115.206 42.2328C114.352 41.8193 113.545 41.4288 113.545 40.5719C113.545 39.7745 114.299 39.1955 115.335 39.1955C116.053 39.1955 116.671 39.4503 117.078 39.9168L116.503 40.4363C116.198 40.0591 115.798 39.8573 115.348 39.8573C114.746 39.8573 114.478 40.2146 114.478 40.5686C114.478 40.9259 114.782 41.2138 115.49 41.5413C116.453 41.9946 117.254 42.4413 117.254 43.2817ZM41.2519 43.2519C41.2519 42.8019 41.5827 42.4347 41.9897 42.4347C41.9996 42.4347 42.0129 42.4347 42.0228 42.4347L41.8607 41.5612C41.5364 41.5844 41.232 41.7035 40.9806 41.9119L40.878 41.9946L40.5736 41.6638L40.6563 41.5678C40.9276 41.2634 41.0633 40.9226 41.0633 40.5521C41.0633 39.6984 40.2891 38.9772 39.3693 38.9772C38.4263 38.9772 37.6885 39.6687 37.6885 40.5521C37.6885 40.9326 37.8242 41.2767 38.0955 41.5678L38.1914 41.6704L38.0888 41.7663C37.6819 42.1534 37.49 42.5836 37.49 43.1229C37.49 44.1717 38.3171 44.9922 39.3693 44.9922C39.8953 44.9922 40.3354 44.8202 40.6729 44.4827L40.7721 44.3834L40.8714 44.4827C41.146 44.7573 41.4702 44.9062 41.8573 44.9293L42.0195 44.0559C41.5927 44.0923 41.2519 43.7217 41.2519 43.2519ZM39.3693 39.6786C39.806 39.6786 40.1633 40.0558 40.1633 40.519C40.1633 40.9822 39.806 41.3594 39.3693 41.3594C38.9292 41.3594 38.5752 40.9822 38.5752 40.519C38.5752 40.0558 38.9325 39.6786 39.3693 39.6786ZM39.3693 44.1386C38.8598 44.1386 38.4561 43.6919 38.4561 43.1229C38.4561 42.5637 38.8664 42.1071 39.3693 42.1071C39.9384 42.1071 40.2791 42.6233 40.2791 43.1229C40.2824 43.7019 39.8887 44.1386 39.3693 44.1386Z" fill="#2C3948"/>
<path d="M65.0377 29.1935C61.4512 29.1935 58.1028 28.4127 55.0854 26.8675C53.891 26.2554 52.7528 25.5242 51.7073 24.6938L51.5451 24.5647L52.5344 22.0436L52.8322 22.5001C53.7057 23.8236 57.5999 27.2613 65.0377 27.2613C70.9271 27.2613 74.8842 24.9188 74.8842 21.4348C74.8842 18.0037 71.3142 15.8829 64.558 15.2973C56.604 14.6091 52.7396 12.0581 52.7396 7.49882C52.7429 3.29024 57.6231 0.00146484 63.8532 0.00146484C67.9923 0.00146484 71.9528 1.11978 75.3077 3.23069L75.5029 3.35311L74.6592 5.63937L74.3515 5.37137C71.8138 3.16121 67.7905 1.78812 63.8532 1.78812C58.0135 1.78812 54.5262 4.68979 54.5262 7.4922C54.5262 12.1276 61.6497 13.2459 64.7102 13.5139C72.9818 14.2319 76.6676 16.6703 76.6676 21.4315C76.6709 26.0007 71.8866 29.1935 65.0377 29.1935ZM130.089 28.5814H126.539L126.717 28.1844C126.936 27.6947 127.098 27.1752 127.197 26.6425C127.293 26.1099 127.349 25.5805 127.362 25.061C127.376 24.5647 127.382 24.1214 127.382 23.731V5.19601C127.382 4.80559 127.376 4.36224 127.362 3.86594C127.349 3.34649 127.293 2.8138 127.197 2.28442C127.098 1.75173 126.939 1.23227 126.717 0.742598L126.539 0.345562H130.089L129.91 0.742598C129.688 1.23227 129.53 1.75173 129.43 2.28442C129.334 2.80718 129.278 3.33987 129.265 3.86594C129.252 4.36224 129.245 4.80559 129.245 5.19601V23.731C129.245 24.1214 129.252 24.5647 129.265 25.061C129.278 25.5871 129.334 26.1198 129.43 26.6425C129.53 27.1785 129.692 27.6947 129.91 28.1844L130.089 28.5814ZM113.658 28.5814H110.108L110.287 28.1811C110.505 27.6947 110.667 27.1785 110.766 26.6392C110.862 26.1132 110.919 25.5805 110.932 25.0577C110.945 24.5614 110.952 24.1181 110.952 23.7276V14.8837H90.266V23.731C90.266 24.1214 90.2727 24.5647 90.2859 25.061C90.2991 25.5805 90.3554 26.1132 90.4513 26.6425C90.5473 27.1719 90.7094 27.6914 90.9311 28.1811L91.1097 28.5814H87.5596L87.7382 28.1844C87.9599 27.6914 88.1187 27.1719 88.218 26.6425C88.3173 26.1198 88.3735 25.5871 88.3834 25.061C88.3967 24.5647 88.4033 24.1214 88.4033 23.731V5.19601C88.4033 4.80559 88.3967 4.36224 88.3834 3.86594C88.3702 3.33987 88.3139 2.80718 88.218 2.28442C88.1187 1.75173 87.9599 1.23227 87.7382 0.742598L87.5596 0.345562H91.1097L90.9311 0.745906C90.7127 1.23227 90.5506 1.75173 90.4513 2.28773C90.3521 2.81711 90.2958 3.3498 90.2859 3.86925C90.2727 4.36555 90.266 4.8089 90.266 5.19932V13.1963H110.952V5.19601C110.952 4.80559 110.945 4.36224 110.932 3.86594C110.919 3.34318 110.862 2.81049 110.766 2.28442C110.667 1.75173 110.505 1.23227 110.287 0.742598L110.108 0.345562H113.655L113.476 0.742598C113.254 1.23558 113.096 1.75504 112.996 2.28442C112.9 2.80718 112.844 3.33987 112.831 3.86594C112.818 4.36224 112.811 4.80559 112.811 5.19601V23.731C112.811 24.1214 112.818 24.5647 112.831 25.061C112.844 25.5871 112.9 26.1198 112.996 26.6425C113.096 27.1752 113.258 27.6947 113.476 28.1811L113.658 28.5814ZM40.352 28.5814H36.8019L36.9806 28.1811C37.1989 27.6914 37.361 27.1752 37.4603 26.6425C37.5596 26.1099 37.6125 25.5772 37.6257 25.061C37.639 24.5647 37.6456 24.1214 37.6456 23.731V5.19601C37.6456 4.80559 37.639 4.36224 37.6257 3.86594C37.6125 3.34649 37.5563 2.8138 37.4603 2.28442C37.3644 1.75173 37.2022 1.23558 36.9806 0.742598L36.8019 0.345562H40.352L40.1734 0.742598C39.9517 1.23558 39.7896 1.75504 39.6936 2.28442C39.5944 2.8138 39.5381 3.34649 39.5282 3.86594C39.515 4.36224 39.5083 4.80559 39.5083 5.19601V23.731C39.5083 24.1214 39.515 24.5647 39.5282 25.061C39.5414 25.5805 39.5977 26.1132 39.6936 26.6425C39.7929 27.1719 39.9517 27.6914 40.1734 28.1811L40.352 28.5814ZM26.297 28.5814H23.1836L23.1108 28.4094C23.1075 28.3994 22.6476 27.3307 21.6914 25.9312C20.7782 24.5846 16.0766 17.5769 15.4314 16.6141L2.70646 16.6306V23.7343C2.70646 24.1247 2.71308 24.568 2.72631 25.0643C2.73955 25.5838 2.79579 26.1165 2.89174 26.6459C2.991 27.1785 3.15312 27.698 3.37149 28.1844L3.55016 28.5814H0L0.178666 28.1844C0.400344 27.6947 0.559158 27.1752 0.658417 26.6425C0.754368 26.1231 0.810614 25.5904 0.823849 25.061C0.837083 24.5647 0.843701 24.1214 0.843701 23.731V5.19601C0.843701 4.80559 0.837083 4.36224 0.823849 3.86594C0.807306 3.33325 0.754368 2.80387 0.658417 2.28442C0.559158 1.75173 0.397036 1.23227 0.178666 0.742598L0 0.345562H15.6002C20.7749 0.345562 24.5302 3.77992 24.5302 8.50795C24.5302 12.2235 22.2472 15.1848 18.5713 16.2336L17.5357 16.5148C17.9923 17.1865 19.3555 19.1948 23.4516 25.2397C24.9173 27.4035 26.3896 28.0322 26.4062 28.0388L27.7098 28.5814H26.297ZM2.70646 2.03627V14.9664L15.4745 14.9333C19.7095 14.9333 22.6674 12.2897 22.6674 8.50464C22.6674 4.6931 19.7095 2.03296 15.4745 2.03296H2.70646V2.03627Z" fill="#2C3948"/>
</svg>
