<svg width="80" height="122" viewBox="0 0 80 122" fill="none" xmlns="http://www.w3.org/2000/svg">
<path d="M39.8594 121.358L39.6805 121.228C39.5667 121.228 39.3552 121.228 39.0625 121.228C30.6711 121.179 23.3529 118.576 17.3358 113.5C5.83824 103.803 0 86.0358 0 60.6871C0 35.3222 5.82197 17.5553 17.3196 7.85841C23.3367 2.78217 30.6385 0.17897 39.0463 0.13016C39.3552 0.13016 39.5666 0.13016 39.6967 0.13016L39.8919 0L40.0708 0.13016C40.1846 0.13016 40.396 0.13016 40.6888 0.13016C49.0802 0.17897 56.3983 2.78217 62.4155 7.85841C73.913 17.5553 79.7513 35.3222 79.7513 60.6708C79.7513 86.0358 73.9293 103.803 62.4317 113.5C56.4146 118.576 49.1127 121.179 40.705 121.228C40.396 121.228 40.1846 121.228 40.0545 121.228L39.8594 121.358ZM39.8594 1.12263C39.6968 1.1389 39.4691 1.1389 39.03 1.15517C30.8662 1.20398 23.7595 3.72583 17.9375 8.63937C6.68388 18.1248 0.975747 35.6476 0.975747 60.6871C0.975747 85.7429 6.70015 103.249 17.9538 112.751C23.792 117.665 30.8825 120.186 39.0463 120.235C39.4691 120.235 39.6968 120.235 39.8594 120.268C40.022 120.252 40.2497 120.252 40.6888 120.235C48.8525 120.186 55.9592 117.665 61.7812 112.751C73.0349 103.266 78.743 85.7429 78.743 60.7034C78.743 35.6638 73.0186 18.1573 61.765 8.65564C55.9267 3.7421 48.8363 1.22025 40.6725 1.17144C40.2497 1.17144 40.022 1.17144 39.8594 1.1389V1.12263Z" fill="#A88667"/>
<path d="M60.3016 52.8607C63.6679 52.8607 66.4 50.1273 66.4 46.7595C66.4 43.3916 63.6679 40.6582 60.3016 40.6582C56.9352 40.6582 54.2031 43.3916 54.2031 46.7595C54.2031 50.1273 56.9352 52.8607 60.3016 52.8607ZM60.3016 41.4229C63.2451 41.4229 65.6357 43.8146 65.6357 46.7595C65.6357 49.7043 63.2451 52.096 60.3016 52.096C57.358 52.096 54.9675 49.7043 54.9675 46.7595C54.9675 43.8146 57.358 41.4229 60.3016 41.4229Z" fill="#A88667"/>
<path d="M20.5077 73.7838C19.1254 73.7838 18.0195 74.9065 18.0195 76.2732C18.0195 77.6398 19.1416 78.7625 20.5077 78.7625C20.7842 78.7625 21.0606 78.6974 21.3046 78.616L20.898 79.4946C20.898 79.4946 20.1499 80.9264 20.1499 82.1141H20.9143C20.9143 81.1216 21.581 79.8688 21.581 79.8363L22.7194 77.3958C22.7682 77.3144 22.8007 77.2331 22.8332 77.1517V77.1192C22.9308 76.8426 22.9959 76.566 22.9959 76.2569C22.9959 74.8739 21.8737 73.7676 20.5077 73.7676V73.7838ZM22.1339 76.8751L22.0038 77.1355C21.7111 77.6561 21.1419 78.014 20.5077 78.014C19.5482 78.014 18.7676 77.2331 18.7676 76.2732C18.7676 75.3132 19.5482 74.5323 20.5077 74.5323C21.4672 74.5323 22.2478 75.3132 22.2478 76.2732C22.2478 76.4847 22.199 76.6799 22.1339 76.8589V76.8751Z" fill="#A88667"/>
<path d="M17.7754 85.5146L18.3934 85.9702C18.3934 85.9702 18.865 85.3682 19.6456 85.3682H21.7597L19.8895 89.0778C19.8895 89.0778 19.2553 90.2655 19.2553 91.2579H20.0196C20.0196 90.4607 20.5563 89.4357 20.5563 89.4194L22.9794 84.6035H19.6293C18.4584 84.6035 17.7917 85.4821 17.7754 85.5146Z" fill="#A88667"/>
<path d="M32.8674 89.2568L32.3633 89.8426C33.274 92.0227 35.2255 95.3418 39.7465 98.2867L40.0717 97.522C35.8272 94.8374 33.8269 91.4207 32.8674 89.2568Z" fill="#A88667"/>
<path d="M56.3176 94.4793C53.7318 94.4793 51.1949 90.8023 51.0811 86.9788C56.3826 84.701 58.6106 82.1629 64.9204 74.9716L66.9532 72.6612L66.5955 72.4172C65.0343 71.3434 63.6682 72.043 62.3022 73.247C62.5949 72.0755 62.351 70.9041 61.5704 69.8628C61.9281 68.5449 61.798 66.9993 60.741 65.3235C60.7898 65.2096 60.8223 65.112 60.8711 64.9981C61.1963 64.2008 61.5216 63.3711 61.9444 62.4274C63.099 59.8893 63.2617 59.5802 63.2617 59.5802L63.4568 59.2059L63.0665 59.0432C63.0665 59.0432 62.6437 58.8805 62.1558 58.8805C61.4565 58.848 60.3832 59.1571 59.2448 60.7679L58.9846 61.1421C58.5293 61.7929 58.0577 62.4599 57.456 63.4036C57.4072 63.485 57.3421 63.5988 57.2608 63.7127C55.2117 63.7127 52.9512 63.4036 51.9755 63.2572C51.8454 63.7453 51.6665 64.8191 52.3658 65.8604C52.8537 66.5763 53.6505 67.0481 54.7401 67.2433C54.8052 67.2433 54.854 67.2596 54.919 67.2759C54.2197 68.187 53.5692 68.8866 53.0488 69.2608C52.6423 69.5537 51.6665 70.2045 50.4306 70.9854C49.8776 62.6226 43.7304 60.7679 40.1689 60.6377L48.1375 46.8245C50.951 41.9435 50.951 34.02 48.1375 29.139L39.5184 14.2031L30.8993 29.139C28.0859 34.02 28.0859 41.9435 30.8993 46.8245L38.4776 59.9381L31.4848 55.9031C28.6551 54.2599 24.0203 54.2599 21.1906 55.9031L12.3926 60.9956L21.1906 66.0882C22.6054 66.9017 24.4756 67.3247 26.3458 67.3247C28.216 67.3247 30.0699 66.9179 31.501 66.0882L39.6323 61.3861C43.2913 61.4024 46.121 62.8016 47.8448 65.2421C47.7147 65.3235 47.5521 65.4211 47.3732 65.5187C46.0072 66.3159 43.7142 67.6501 41.7789 69.0493C39.1769 70.9203 38.2987 73.7188 37.1766 77.2656C36.4773 79.4458 35.6967 81.8863 34.3795 84.5383C33.8591 84.5383 33.3712 84.7661 33.0622 85.1729L27.5655 92.0388V92.1527C27.5655 92.234 27.4354 94.3329 28.7852 97.05C30.0049 99.5393 32.737 103.07 38.7866 105.722L39.1444 105.885L42.8034 96.6269C42.9661 96.2202 43.0149 95.7646 42.9335 95.3253L42.7709 94.4142C45.2428 90.0539 48.6417 88.0527 50.3655 87.288C50.5932 91.0789 53.0163 95.1789 56.3664 95.1789L56.6916 94.463H56.3501L56.3176 94.4793ZM30.1675 60.654H26.2645L22.9957 57.3837V58.4575L25.1912 60.654H19.5806V61.3373H25.1912L22.9957 63.5338V64.6076L26.2645 61.3373H30.1675L27.4029 64.1032V65.177L31.2408 61.3373H38.1849L31.1107 65.4211C28.4762 66.9342 24.1992 66.9342 21.5646 65.4211L13.905 60.9956L21.5646 56.5702C24.1992 55.0571 28.4762 55.0571 31.1107 56.5702L38.1849 60.654H31.2408L27.4029 56.8143V57.8881L30.1675 60.654ZM44.7224 41.5205L39.9087 46.3364V37.4855L45.7957 31.5958H44.7224L39.9087 36.4117V23.6397H39.1444V36.4117L34.3307 31.5958H33.2574L39.1444 37.4855V46.3364L34.3307 41.5205H33.2574L39.1444 47.4102V59.5802L31.5661 46.4503C28.8665 41.7808 28.8665 34.1827 31.5661 29.5295L39.5347 15.7325L47.487 29.5295C50.1866 34.199 50.1866 41.797 47.487 46.4503L39.9087 59.5802V47.4102L45.7957 41.5205H44.7224ZM54.8702 66.5112C53.992 66.3485 53.3578 66.0068 53 65.4536C52.6748 64.9818 52.626 64.4612 52.626 64.1358C53.6017 64.2659 55.1304 64.4449 56.8055 64.4774C56.8055 64.4774 56.3013 65.3397 55.4231 66.5925C55.3093 66.5763 55.1467 66.5437 54.8865 66.4949L54.8702 66.5112ZM49.6825 71.4573C47.7798 72.645 45.4542 74.0279 43.4865 75.0041C43.5515 74.4509 43.6816 73.7351 43.893 73.3446C44.2345 72.6938 45.1127 71.9454 46.0559 71.1481C47.2756 70.1068 48.6092 68.9842 49.097 67.7314C49.4711 68.8541 49.6662 70.0906 49.6987 71.441L49.6825 71.4573ZM38.689 104.876C28.0371 100.06 28.281 92.3154 28.281 92.3154L33.2574 86.1003C33.9566 87.9062 36.3472 92.9662 42.0716 96.3341L38.689 104.876ZM41.5187 95.0976C37.2254 92.234 35.0788 88.3618 34.2331 86.4257C36.087 83.1066 37.0465 80.1292 37.8759 77.4934C38.9655 74.0767 39.8111 71.3922 42.2017 69.6676C44.1207 68.2846 46.3812 66.9667 47.7472 66.1695C47.9424 66.0556 48.105 65.958 48.2514 65.8766C48.2514 65.8766 48.3327 65.9743 48.3977 66.137C49.0157 67.6501 47.2594 69.1306 45.5681 70.5787C44.5761 71.4084 43.6491 72.2057 43.2263 72.9866C42.7709 73.8489 42.6896 75.541 42.6896 75.6224L42.6571 76.2569L43.2263 75.9803C46.9179 74.2232 52.3658 70.7088 53.5042 69.8791C54.236 69.3422 55.1792 68.2846 56.155 66.9017C56.6103 66.2509 57.2283 65.2421 57.6836 64.51C57.8463 64.2334 57.9926 64.0056 58.1064 63.8266C58.6919 62.8992 59.1635 62.2322 59.6189 61.5976L59.8791 61.2234C60.5946 60.2147 61.3752 59.6452 62.0908 59.6452C62.107 59.6452 62.1233 59.6452 62.1558 59.6452C62.2371 59.6452 62.3184 59.6452 62.3998 59.6615C62.2209 60.052 61.8794 60.7679 61.2776 62.1183C60.8386 63.0782 60.5133 63.908 60.1881 64.7215C59.6351 66.137 59.1472 67.3572 58.2853 68.7239C57.212 70.4322 55.4557 71.8152 53.5855 73.2795C53 73.7351 52.4146 74.1906 51.8291 74.6787C51.325 75.0855 51.0485 75.72 51.0485 76.3708C52.0243 75.4759 53.0488 74.6624 54.0571 73.8815C55.9761 72.3846 57.7812 70.9692 58.9358 69.1469C59.5701 68.1382 59.9929 67.2108 60.3995 66.2346C61.4728 68.3009 61.115 70.3509 59.3099 72.3521C58.8383 72.8727 57.7324 73.8978 56.5615 74.9716C55.9923 75.5085 55.3906 76.0617 54.8052 76.6148C54.3661 77.0379 54.1059 77.6236 54.1059 78.2256V78.3232C55.0166 77.4446 56.0899 76.4359 57.0819 75.5248C58.3179 74.3859 59.3912 73.3934 59.8791 72.8565C60.3995 72.2708 60.9199 71.5711 61.2776 70.7739C62.3998 72.7589 60.9524 74.6136 60.2368 75.3621C59.196 76.4359 58.1878 77.4283 57.3746 78.2093C56.9356 78.6323 56.6916 79.2018 56.6916 79.8038V79.9014C57.5373 79.1204 59.7164 77.0053 61.3915 75.2319C63.2617 73.312 64.4326 72.2057 65.8149 72.8402L64.3675 74.4835C57.9926 81.7562 55.846 84.2129 50.398 86.4745C48.6417 87.2066 44.3159 89.5007 41.5512 95.1138L41.5187 95.0976Z" fill="#A88667"/>
</svg>
